<?xml version="1.0" encoding="utf-8"?>
<!-- Generator: Adobe Illustrator 27.5.0, SVG Export Plug-In . SVG Version: 6.00 Build 0)  -->
<svg version="1.1" xmlns="http://www.w3.org/2000/svg" xmlns:xlink="http://www.w3.org/1999/xlink" x="0px" y="0px"
	 viewBox="0 0 2200 1466" style="enable-background:new 0 0 2200 1466;" xml:space="preserve">
<g id="background">
	<rect y="0" style="fill:#FFFFFF;" width="2200" height="1466"/>
</g>
<g id="Objects">
	<g>
		<path d="M976.09,1024.568c-25.629,0.001-45.946-5.441-61.991-16.579c-29.35-20.374-43.948-63.327-33.955-99.913
			c8.935-32.704,33.011-55.01,56.294-76.58c3.146-2.914,6.398-5.926,9.514-8.879c23.619-22.382,45.189-47.606,64.112-74.971
			c2.394-3.462,4.804-7.043,7.135-10.506c8.954-13.306,18.213-27.066,29.592-38.726l0.426-0.434
			c13.923-14.127,32.67-21.908,52.785-21.908s38.862,7.781,52.786,21.909l0.424,0.432c11.379,11.661,20.638,25.42,29.592,38.727
			c2.331,3.463,4.741,7.044,7.135,10.507c18.923,27.365,40.493,52.589,64.112,74.97c3.116,2.954,6.368,5.966,9.514,8.88
			c23.283,21.571,47.359,43.876,56.294,76.58c9.994,36.586-4.605,79.54-33.955,99.913c-17.145,11.901-39.174,17.29-67.342,16.502
			c-18.381-0.518-36.9-3.418-55.043-8.617c-41.553-11.909-85.479-11.909-127.033,0c-18.143,5.199-36.662,8.099-55.044,8.617
			C979.633,1024.542,977.847,1024.568,976.09,1024.568z M1100,690.138c-16.319,0-31.508,6.292-42.767,17.717l-0.375,0.382
			c-10.487,10.747-19.384,23.969-27.989,36.755c-2.355,3.5-4.791,7.118-7.235,10.653c-19.476,28.165-41.683,54.132-66.006,77.181
			c-3.173,3.007-6.456,6.048-9.629,8.988c-21.833,20.227-44.409,41.143-52.285,69.967c-8.498,31.117,3.714,67.509,28.407,84.651
			c14.588,10.126,33.847,14.702,58.922,13.995c17.205-0.484,34.554-3.202,51.566-8.078c44.086-12.635,90.696-12.635,134.783,0
			c17.012,4.875,34.361,7.593,51.565,8.078c25.069,0.717,44.335-3.869,58.923-13.995l4.011,5.778l-4.011-5.778
			c24.694-17.142,36.906-53.533,28.407-84.651c-7.876-28.824-30.452-49.74-52.285-69.967c-3.173-2.941-6.456-5.981-9.629-8.989
			c-24.323-23.048-46.531-49.016-66.006-77.18c-2.444-3.536-4.88-7.155-7.235-10.654c-8.605-12.786-17.502-26.008-27.989-36.755
			l-0.373-0.38C1131.508,696.43,1116.319,690.138,1100,690.138z"/>
		<path d="M1009.959,661.331c-20.404,0-38.513-6.657-52.793-19.497c-17.591-15.818-28.427-40.66-31.337-71.841
			c-2.957-31.693,2.697-62.369,15.921-86.377c13.711-24.891,33.912-39.779,56.882-41.923c22.875-2.135,42.986,8.872,58.144,31.831
			c13.4,20.296,22.124,48.616,25.229,81.897c3.061,32.812-0.567,57.396-11.091,75.158c-10.606,17.899-28.044,28.101-51.831,30.32
			C1015.996,661.187,1012.953,661.331,1009.959,661.331z M1004.14,455.501c-1.385,0-2.784,0.066-4.202,0.198
			c-18.185,1.697-34.474,14.021-45.866,34.703c-11.878,21.565-16.934,49.366-14.236,78.283
			c2.575,27.598,11.821,49.275,26.737,62.688c13.379,12.03,31.086,17.396,51.204,15.519c19.317-1.803,32.74-9.484,41.035-23.484
			c8.833-14.908,11.924-37.342,9.186-66.681c-2.85-30.545-11.005-57.342-22.962-75.453
			C1033.733,464.155,1019.991,455.501,1004.14,455.501z"/>
		<path d="M876.319,775.796c-8.501,0-16.867-1.559-24.933-4.689c-20.31-7.881-37.736-25.715-50.396-51.573
			c-12.851-26.244-17.975-54.429-14.429-79.362c3.688-25.929,16.256-45.367,35.386-54.735c19.084-9.342,40.055-6.425,60.647,8.434
			c18.113,13.071,34.812,34.537,48.292,62.078c13.309,27.178,18.19,49.494,14.924,68.221c-3.304,18.941-15.021,33.461-34.823,43.154
			l0,0C899.475,772.963,887.775,775.796,876.319,775.796z M844.613,594.161c-5.648,0-11.148,1.302-16.48,3.912
			c-14.814,7.254-24.632,22.909-27.644,44.081c-3.154,22.171,1.511,47.455,13.136,71.194c11.078,22.627,25.895,38.065,42.851,44.644
			c15.175,5.888,31.886,4.748,48.327-3.303c0,0,0,0,0.001,0c15.747-7.708,24.627-18.481,27.149-32.936
			c2.7-15.481-1.91-35.539-13.701-59.618c-12.289-25.109-27.876-45.3-43.889-56.856
			C864.099,597.873,854.146,594.161,844.613,594.161z"/>
		<path d="M1190.041,661.331c-2.995,0-6.036-0.143-9.125-0.432c-23.787-2.219-41.225-12.421-51.831-30.32
			c-10.525-17.762-14.152-42.346-11.091-75.158c3.105-33.282,11.829-61.602,25.229-81.897
			c15.159-22.958,35.266-33.961,58.144-31.831c22.97,2.143,43.171,17.031,56.882,41.923c13.224,24.008,18.878,54.684,15.921,86.377
			c-2.91,31.181-13.745,56.023-31.337,71.841C1228.555,654.674,1210.444,661.331,1190.041,661.331z M1195.86,455.501
			c-15.852,0-29.593,8.653-40.896,25.773c-11.957,18.111-20.112,44.908-22.962,75.453c-2.737,29.339,0.354,51.773,9.186,66.681
			c8.296,14,21.718,21.682,41.035,23.484c20.123,1.879,37.826-3.49,51.205-15.519c14.916-13.413,24.162-35.089,26.737-62.688
			c2.698-28.917-2.358-56.718-14.236-78.283c-11.392-20.682-27.681-33.006-45.866-34.703
			C1198.645,455.567,1197.244,455.501,1195.86,455.501z"/>
		<path d="M1323.681,775.796c-11.457,0-23.155-2.833-34.67-8.471c-19.802-9.692-31.519-24.211-34.823-43.154
			c-3.266-18.727,1.615-41.042,14.924-68.222c13.479-27.539,30.179-49.006,48.292-62.077c20.593-14.859,41.565-17.774,60.646-8.435
			c19.131,9.368,31.699,28.807,35.387,54.736c3.547,24.933-1.577,53.117-14.428,79.362c-12.66,25.857-30.086,43.692-50.396,51.572
			C1340.55,774.237,1332.181,775.796,1323.681,775.796z M1355.387,594.161c-9.533,0-19.485,3.712-29.75,11.12
			c-16.013,11.556-31.6,31.747-43.889,56.855c-11.791,24.081-16.401,44.139-13.701,59.62c2.522,14.455,11.402,25.228,27.149,32.936
			c0.001,0,0.001,0,0.001,0c16.441,8.05,33.152,9.191,48.327,3.303c16.956-6.58,31.773-22.018,42.851-44.644
			c11.625-23.74,16.289-49.024,13.136-71.194c-3.012-21.172-12.83-36.827-27.645-44.082
			C1366.535,595.464,1361.034,594.161,1355.387,594.161z"/>
	</g>
	<g>
		<path d="M607.43,1007.989c-17.145,11.898-39.164,17.288-67.337,16.505c-18.387-0.526-36.899-3.421-55.047-8.62
			c-41.553-11.908-85.476-11.908-127.029,0c-18.148,5.199-36.669,8.095-55.047,8.62c-1.806,0.048-3.593,0.076-5.352,0.076
			c-25.622,0-45.94-5.447-61.985-16.581c-29.349-20.375-43.952-63.323-33.955-99.916c8.936-32.703,33.009-55.009,56.29-76.579
			c3.144-2.915,6.403-5.925,9.519-8.878c23.615-22.382,45.185-47.612,64.107-74.973c2.399-3.46,4.807-7.043,7.139-10.512
			c8.955-13.303,18.215-27.055,29.588-38.715l0.43-0.44c13.924-14.125,32.665-21.904,52.782-21.904
			c10.063,0,19.773,1.94,28.718,5.658c8.936,3.708,17.107,9.184,24.064,16.247l0.43,0.44c11.373,11.659,20.633,25.412,29.588,38.724
			c2.332,3.46,4.74,7.043,7.139,10.503c18.922,27.371,40.492,52.591,64.107,74.973c3.115,2.953,6.374,5.963,9.519,8.878
			c23.28,21.57,47.354,43.875,56.29,76.579C651.381,944.665,636.778,987.613,607.43,1007.989z"/>
		<path d="M720.544,719.535c-12.663,25.851-30.094,43.694-50.403,51.569c-8.056,3.135-16.428,4.692-24.934,4.692
			c-11.449,0-23.147-2.838-34.663-8.477c-19.802-9.691-31.518-24.207-34.825-43.149c-3.268-18.731,1.615-41.047,14.928-68.226
			c13.475-27.533,30.171-48.998,48.291-62.071c20.585-14.861,41.563-17.776,60.648-8.439c19.123,9.366,31.69,28.804,35.379,54.741
			C738.511,665.1,733.388,693.292,720.544,719.535z"/>
		<path d="M595.703,569.991c-2.915,31.184-13.743,56.022-31.337,71.839c-14.278,12.844-32.388,19.496-52.792,19.496
			c-3.001,0-6.04-0.143-9.127-0.43c-23.787-2.217-41.228-12.414-51.836-30.314c-10.522-17.766-14.144-42.346-11.086-75.164
			c1.548-16.638,4.511-32.034,8.754-45.815c4.243-13.781,9.777-25.937,16.476-36.077c15.157-22.965,35.265-33.965,58.144-31.834
			c22.965,2.141,43.168,17.03,56.882,41.926C593.008,507.623,598.656,538.3,595.703,569.991z"/>
		<path d="M252.423,655.954c13.303,27.17,18.187,49.485,14.918,68.216c-3.307,18.942-15.023,33.458-34.825,43.149
			c-11.506,5.639-23.213,8.477-34.662,8.477c-8.506,0-16.868-1.558-24.934-4.692c-20.308-7.875-37.74-25.717-50.403-51.569
			c-12.844-26.243-17.967-54.436-14.421-79.36c3.689-25.937,16.256-45.376,35.379-54.741c19.085-9.337,40.062-6.422,60.648,8.439
			C222.242,606.947,238.938,628.411,252.423,655.954z"/>
		<path d="M403.535,555.416c0.698,7.483,1.051,14.536,1.051,21.187c0,22.487-4.014,40.263-12.137,53.977
			c-10.608,17.9-28.049,28.097-51.836,30.314c-3.087,0.287-6.126,0.43-9.127,0.43c-20.404,0-38.514-6.652-52.792-19.496
			c-17.594-15.817-28.422-40.655-31.337-71.839c-2.953-31.69,2.695-62.368,15.922-86.374c13.714-24.895,33.917-39.785,56.882-41.926
			c22.879-2.131,42.986,8.869,58.144,31.834C391.704,493.813,400.429,522.14,403.535,555.416z"/>
	</g>
	<g>
		<path style="fill:#2A50DB;" d="M1964.369,1007.989c-17.145,11.898-39.164,17.288-67.337,16.505
			c-18.387-0.526-36.899-3.421-55.047-8.62c-41.553-11.908-85.476-11.908-127.029,0c-18.148,5.199-36.669,8.095-55.047,8.62
			c-1.806,0.048-3.593,0.076-5.352,0.076c-25.622,0-45.94-5.447-61.985-16.581c-29.349-20.375-43.952-63.323-33.955-99.916
			c8.936-32.703,33.009-55.009,56.29-76.579c3.144-2.915,6.403-5.925,9.519-8.878c23.615-22.382,45.185-47.612,64.107-74.973
			c2.399-3.46,4.807-7.043,7.139-10.512c8.955-13.303,18.215-27.055,29.588-38.715l0.43-0.44
			c13.924-14.125,32.665-21.904,52.782-21.904c10.063,0,19.773,1.94,28.718,5.658c8.936,3.708,17.107,9.184,24.064,16.247l0.43,0.44
			c11.373,11.659,20.633,25.412,29.588,38.724c2.332,3.46,4.74,7.043,7.139,10.503c18.922,27.371,40.492,52.591,64.107,74.973
			c3.116,2.953,6.374,5.963,9.519,8.878c23.28,21.57,47.354,43.875,56.29,76.579
			C2008.32,944.665,1993.717,987.613,1964.369,1007.989z"/>
		<path style="fill:#2A50DB;" d="M2077.483,719.535c-12.663,25.851-30.094,43.694-50.403,51.569
			c-8.056,3.135-16.428,4.692-24.934,4.692c-11.449,0-23.146-2.838-34.662-8.477c-19.802-9.691-31.518-24.207-34.825-43.149
			c-3.268-18.731,1.615-41.047,14.928-68.226c13.475-27.533,30.171-48.998,48.291-62.071c20.585-14.861,41.563-17.776,60.648-8.439
			c19.123,9.366,31.69,28.804,35.379,54.741C2095.45,665.1,2090.327,693.292,2077.483,719.535z"/>
		<path style="fill:#2A50DB;" d="M1952.642,569.991c-2.915,31.184-13.743,56.022-31.337,71.839
			c-14.278,12.844-32.388,19.496-52.792,19.496c-3.001,0-6.04-0.143-9.127-0.43c-23.787-2.217-41.228-12.414-51.836-30.314
			c-10.522-17.766-14.144-42.346-11.086-75.164c1.548-16.638,4.511-32.034,8.754-45.815c4.243-13.781,9.777-25.937,16.476-36.077
			c15.157-22.965,35.265-33.965,58.144-31.834c22.965,2.141,43.168,17.03,56.882,41.926
			C1949.947,507.623,1955.595,538.3,1952.642,569.991z"/>
		<path style="fill:#2A50DB;" d="M1609.362,655.954c13.303,27.17,18.187,49.485,14.918,68.216
			c-3.307,18.942-15.023,33.458-34.825,43.149c-11.506,5.639-23.213,8.477-34.662,8.477c-8.506,0-16.868-1.558-24.934-4.692
			c-20.308-7.875-37.74-25.717-50.403-51.569c-12.844-26.243-17.967-54.436-14.421-79.36c3.689-25.937,16.256-45.376,35.379-54.741
			c19.085-9.337,40.062-6.422,60.647,8.439C1579.181,606.947,1595.877,628.411,1609.362,655.954z"/>
		<path style="fill:#2A50DB;" d="M1760.474,555.416c0.698,7.483,1.051,14.536,1.051,21.187c0,22.487-4.014,40.263-12.137,53.977
			c-10.608,17.9-28.049,28.097-51.836,30.314c-3.087,0.287-6.126,0.43-9.127,0.43c-20.404,0-38.514-6.652-52.792-19.496
			c-17.594-15.817-28.422-40.655-31.337-71.839c-2.953-31.69,2.695-62.368,15.922-86.374c13.714-24.895,33.917-39.785,56.882-41.926
			c22.879-2.131,42.986,8.869,58.144,31.834C1748.643,493.813,1757.368,522.14,1760.474,555.416z"/>
	</g>
</g>
</svg>
